<?xml version="1.0" encoding="UTF-8"?>
<svg width="24px" height="24px" viewBox="0 0 24 24" version="1.1" xmlns="http://www.w3.org/2000/svg" xmlns:xlink="http://www.w3.org/1999/xlink">
    <!-- Generator: Sketch 56.3 (81716) - https://sketch.com -->
    <title>Logs - Solid</title>
    <desc>Created with Sketch.</desc>
    <g id="Icons-&amp;-Buttons" stroke="none" stroke-width="1" fill="none" fill-rule="evenodd">
        <g id="Artboard" transform="translate(-305.000000, -30.000000)" fill="#FFFFFF" fill-rule="nonzero">
            <path d="M325.486563,33.5134371 C330.171146,38.1980198 330.171146,45.8019802 325.486563,50.4865629 C320.80198,55.1711457 313.19802,55.1711457 308.513437,50.4865629 C303.828854,45.8019802 303.828854,38.1980198 308.513437,33.5134371 C313.19802,28.8288543 320.80198,28.8288543 325.486563,33.5134371 Z M319,44.5 L311,44.5 L311,46.9003625 L319,46.9003625 L319,44.5 Z M323,41 L311,41 L311,43.4003625 L323,43.4003625 L323,41 Z M323,37.5 L311,37.5 L311,39.9003625 L323,39.9003625 L323,37.5 Z" id="Logs---Solid"></path>
        </g>
    </g>
</svg>