<?xml version="1.0" encoding="UTF-8"?>
<svg width="24px" height="24px" viewBox="0 0 24 24" version="1.1" xmlns="http://www.w3.org/2000/svg" xmlns:xlink="http://www.w3.org/1999/xlink">
    <!-- Generator: Sketch 56.3 (81716) - https://sketch.com -->
    <title>More - Solid</title>
    <desc>Created with Sketch.</desc>
    <g id="Icons-&amp;-Buttons" stroke="none" stroke-width="1" fill="none" fill-rule="evenodd">
        <g id="Artboard" transform="translate(-125.000000, -30.000000)" fill="#FFFFFF" fill-rule="nonzero">
            <path d="M145.486563,33.5134371 C150.171146,38.1980198 150.171146,45.8019802 145.486563,50.4865629 C140.80198,55.1711457 133.19802,55.1711457 128.513437,50.4865629 C123.828854,45.8019802 123.828854,38.1980198 128.513437,33.5134371 C133.19802,28.8288543 140.80198,28.8288543 145.486563,33.5134371 Z M132.692071,43.4202084 C133.4453,43.4202084 134.055913,42.8095954 134.055913,42.0563661 C134.055913,41.3031368 133.4453,40.6925238 132.692071,40.6925238 C131.938841,40.6925238 131.328228,41.3031368 131.328228,42.0563661 C131.328228,42.8095954 131.938841,43.4202084 132.692071,43.4202084 Z M137.056366,43.4202084 C137.809595,43.4202084 138.420208,42.8095954 138.420208,42.0563661 C138.420208,41.3031368 137.809595,40.6925238 137.056366,40.6925238 C136.303137,40.6925238 135.692524,41.3031368 135.692524,42.0563661 C135.692524,42.8095954 136.303137,43.4202084 137.056366,43.4202084 Z M141.420662,43.4202084 C142.173891,43.4202084 142.784504,42.8095954 142.784504,42.0563661 C142.784504,41.3031368 142.173891,40.6925238 141.420662,40.6925238 C140.667432,40.6925238 140.056819,41.3031368 140.056819,42.0563661 C140.056819,42.8095954 140.667432,43.4202084 141.420662,43.4202084 Z" id="More---Solid"></path>
        </g>
    </g>
</svg>