<?xml version="1.0" encoding="UTF-8"?>
<svg width="24px" height="24px" viewBox="0 0 24 24" version="1.1" xmlns="http://www.w3.org/2000/svg" xmlns:xlink="http://www.w3.org/1999/xlink">
    <!-- Generator: Sketch 56.3 (81716) - https://sketch.com -->
    <title>Question</title>
    <desc>Created with Sketch.</desc>
    <g id="Icons-&amp;-Buttons" stroke="none" stroke-width="1" fill="none" fill-rule="evenodd">
        <g id="Artboard" transform="translate(-215.000000, -30.000000)" fill="#FFFFFF" fill-rule="nonzero">
            <path d="M239,42 C239,48.624 233.624,54 227,54 C220.376,54 215,48.624 215,42 C215,35.376 220.376,30 227,30 C233.624,30 239,35.376 239,42 Z M225.971545,43.902439 L228.101626,43.902439 L228.101626,43.6422764 C228.101626,43.4471535 228.117886,43.2737135 228.150407,43.1219512 C228.182927,42.9701889 228.234417,42.8265589 228.304878,42.6910569 C228.375339,42.5555549 228.472899,42.4173449 228.597561,42.2764228 C228.722223,42.1355007 228.876693,41.9783207 229.060976,41.804878 C229.256099,41.6205953 229.440379,41.4336053 229.613821,41.2439024 C229.787264,41.0541996 229.939024,40.8509496 230.069106,40.6341463 C230.199188,40.4173431 230.302168,40.1842831 230.378049,39.9349593 C230.45393,39.6856356 230.49187,39.4037956 230.49187,39.0894309 C230.49187,38.6558244 230.40515,38.2493244 230.231707,37.8699187 C230.058265,37.490513 229.817075,37.162603 229.50813,36.8861789 C229.199185,36.6097547 228.827915,36.3929547 228.394309,36.2357724 C227.960702,36.07859 227.483742,36 226.963415,36 C226.475607,36 226.036587,36.07588 225.646341,36.2276423 C225.256096,36.3794046 224.917346,36.5772346 224.630081,36.8211382 C224.342817,37.0650419 224.104337,37.3387519 223.914634,37.6422764 C223.724931,37.945801 223.586721,38.249321 223.5,38.5528455 L225.369919,39.3333333 C225.413279,39.1598907 225.481029,38.9918707 225.573171,38.8292683 C225.665312,38.6666659 225.781842,38.5203259 225.922764,38.3902439 C226.063686,38.260162 226.226286,38.157182 226.410569,38.0813008 C226.594852,38.0054197 226.800812,37.9674797 227.028455,37.9674797 C227.451222,37.9674797 227.784552,38.0921397 228.028455,38.3414634 C228.272359,38.5907872 228.394309,38.8780472 228.394309,39.203252 C228.394309,39.5176167 228.313009,39.7831967 228.150407,40 C227.987804,40.2168033 227.760164,40.4552833 227.46748,40.7154472 C227.185635,40.9539307 226.949865,41.1761507 226.760163,41.3821138 C226.57046,41.5880769 226.4187,41.7940369 226.304878,42 C226.191056,42.2059631 226.107046,42.4200531 226.052846,42.6422764 C225.998645,42.8644998 225.971545,43.1056898 225.971545,43.3658537 L225.971545,43.902439 Z M227.012195,48 C227.402441,48 227.735771,47.86179 228.012195,47.5853659 C228.288619,47.3089417 228.426829,46.9756117 228.426829,46.5853659 C228.426829,46.19512 228.288619,45.8645 228.012195,45.5934959 C227.735771,45.3224919 227.402441,45.1869919 227.012195,45.1869919 C226.621949,45.1869919 226.291329,45.3224919 226.020325,45.5934959 C225.749321,45.8645 225.613821,46.19512 225.613821,46.5853659 C225.613821,46.9756117 225.749321,47.3089417 226.020325,47.5853659 C226.291329,47.86179 226.621949,48 227.012195,48 Z" id="Question"></path>
        </g>
    </g>
</svg>