<?xml version="1.0" encoding="UTF-8"?>
<svg width="24px" height="24px" viewBox="0 0 24 24" version="1.1" xmlns="http://www.w3.org/2000/svg" xmlns:xlink="http://www.w3.org/1999/xlink">
    <!-- Generator: Sketch 56.3 (81716) - https://sketch.com -->
    <title>Settings - Solid</title>
    <desc>Created with Sketch.</desc>
    <g id="Icons-&amp;-Buttons" stroke="none" stroke-width="1" fill="none" fill-rule="evenodd">
        <g id="Artboard" transform="translate(-365.000000, -30.000000)" fill="#FFFFFF" fill-rule="nonzero">
            <path d="M385.486563,33.5134371 C390.171146,38.1980198 390.171146,45.8019802 385.486563,50.4865629 C380.80198,55.1711457 373.19802,55.1711457 368.513437,50.4865629 C363.828854,45.8019802 363.828854,38.1980198 368.513437,33.5134371 C373.19802,28.8288543 380.80198,28.8288543 385.486563,33.5134371 Z M384,42.7766643 L384,41.1732283 L382.06,40.531854 L381.61,39.4395132 L382.49,37.5955619 L381.36,36.4631353 L379.55,37.3750895 L378.46,36.9241231 L377.77,35 L376.17,35 L375.54,36.9441661 L374.43,37.3951324 L372.59,36.5132427 L371.46,37.6456693 L372.37,39.4595562 L371.92,40.5518969 L370,41.2333572 L370,42.8267717 L371.94,43.468146 L372.39,44.5604868 L371.51,46.4044381 L372.64,47.5368647 L374.45,46.6249105 L375.54,47.0758769 L376.23,49 L377.82,49 L378.45,47.0558339 L379.56,46.6048676 L381.4,47.4867573 L382.53,46.3543307 L381.61,44.5404438 L382.08,43.4481031 L384,42.7566213 L384,42.7766643 Z M377,45.0114531 C375.34,45.0114531 374,43.6685755 374,42.0050107 C374,40.341446 375.34,38.9985684 377,38.9985684 C378.66,38.9985684 380,40.341446 380,42.0050107 C380,43.6685755 378.66,45.0114531 377,45.0114531 Z" id="Settings---Solid"></path>
        </g>
    </g>
</svg>