<?xml version="1.0" encoding="UTF-8"?>
<svg width="24px" height="24px" viewBox="0 0 24 24" version="1.1" xmlns="http://www.w3.org/2000/svg" xmlns:xlink="http://www.w3.org/1999/xlink">
    <!-- Generator: Sketch 56.3 (81716) - https://sketch.com -->
    <title>Share - Solid</title>
    <desc>Created with Sketch.</desc>
    <g id="Icons-&amp;-Buttons" stroke="none" stroke-width="1" fill="none" fill-rule="evenodd">
        <g id="Artboard" transform="translate(-155.000000, -30.000000)" fill="#FFFFFF" fill-rule="nonzero">
            <path d="M175.486563,33.5134371 C180.171146,38.1980198 180.171146,45.8019802 175.486563,50.4865629 C170.80198,55.1711457 163.19802,55.1711457 158.513437,50.4865629 C153.828854,45.8019802 153.828854,38.1980198 158.513437,33.5134371 C163.19802,28.8288543 170.80198,28.8288543 175.486563,33.5134371 Z M167.001812,36.5464431 C165.501586,36.5464431 164.274128,37.7739012 164.274128,39.2741278 C164.274128,40.7743543 165.501586,42.0018124 167.001812,42.0018124 C168.502039,42.0018124 169.729497,40.7743543 169.729497,39.2741278 C169.729497,37.7739012 168.502039,36.5464431 167.001812,36.5464431 Z M172.457182,47.4571817 L172.457182,46.0933394 C172.457182,44.2794291 168.815723,43.3656547 167.001812,43.3656547 C165.187902,43.3656547 161.546443,44.2794291 161.546443,46.0933394 L161.546443,47.4571817 L172.457182,47.4571817 Z" id="Share---Solid"></path>
        </g>
    </g>
</svg>