<?xml version="1.0" encoding="UTF-8"?>
<svg width="36px" height="36px" viewBox="0 0 36 36" version="1.1" xmlns="http://www.w3.org/2000/svg" xmlns:xlink="http://www.w3.org/1999/xlink">
    <!-- Generator: Sketch 56.3 (81716) - https://sketch.com -->
    <title>Application</title>
    <desc>Created with Sketch.</desc>
    <g id="Icons-&amp;-Buttons" stroke="none" stroke-width="1" fill="none" fill-rule="evenodd">
        <g id="Artboard" transform="translate(-308.000000, -422.000000)">
            <g id="Application" transform="translate(308.000000, 422.000000)">
                <path d="M10.0121416,1.76400249 C4.23534071,4.54707342 0.431864658,10.2253563 0.0344074923,16.6485925 C-0.361717904,23.0503063 2.68474309,29.2213788 8.02490565,32.8479789 C13.3738885,36.4805684 20.2209083,37.0143235 25.9878585,34.2359985 C31.7646591,31.4529259 35.5681351,25.7746425 35.9655924,19.3514069 C36.3617183,12.9496943 33.3152565,6.77861989 27.9750945,3.15202154 C22.6261106,-0.480568658 15.7790906,-1.01432386 10.0121416,1.76400249 Z" id="Path" fill="#232935"></path>
                <path d="M2.84405815,8.2852236 C5.17052736,9.71307089 7.26732787,11.5652013 9.0087773,13.8015982 C11.3536256,16.8128895 15.6728248,17.4278817 19.033123,15.3724109 C22.3934212,13.3169401 22.9142938,8.72858161 20.5192359,5.65281061 C18.945809,3.63219097 17.2061294,1.81132062 15.3345293,0.195991024 C16.2042836,0.0668871391 17.0943307,0 18,0 C27.9411255,0 36,8.0588745 36,18 C36,27.9411255 27.9411255,36 18,36 C8.0588745,36 0,27.9411255 0,18 C0,14.4218943 1.04402192,11.0876329 2.84405815,8.2852236 Z M16.6154956,20.6370009 C14.5294286,21.6419987 13.1559511,23.6924898 13.0124249,26.0119917 C12.8693796,28.3237217 13.9694906,30.5521646 15.8978826,31.8617701 C17.8294597,33.1735386 20.3019947,33.3662835 22.3845044,32.3629994 C24.4705714,31.358001 25.8440488,29.3075098 25.987575,26.988008 C26.1306205,24.6762785 25.0305093,22.447835 23.1021175,21.13823 C21.1705399,19.8264613 18.6980049,19.6337164 16.6154956,20.6370009 Z" id="Shape" fill="#FFFFFF"></path>
            </g>
        </g>
    </g>
</svg>