<?xml version="1.0" encoding="UTF-8"?>
<svg width="36px" height="36px" viewBox="0 0 36 36" version="1.1" xmlns="http://www.w3.org/2000/svg" xmlns:xlink="http://www.w3.org/1999/xlink">
    <!-- Generator: Sketch 56.3 (81716) - https://sketch.com -->
    <title>Container Swap</title>
    <desc>Created with Sketch.</desc>
    <g id="Icons-&amp;-Buttons" stroke="none" stroke-width="1" fill="none" fill-rule="evenodd">
        <g id="Artboard" transform="translate(-191.000000, -461.000000)" fill-rule="nonzero">
            <g id="Container-Swap" transform="translate(191.000000, 461.000000)">
                <g id="Deployment" transform="translate(1.000000, 3.000000)">
                    <path d="M18.7727024,21.2618079 C18.4267222,21.8870445 17.7872548,22.2701251 17.0978285,22.2661123 L6.98805928,22.2661123 C6.29653567,22.2661123 5.65848523,21.88267 5.31312504,21.2585541 L0.259552222,12.1439888 C-0.086550478,11.5185315 -0.086550478,10.7474917 0.259750689,10.1216761 L5.31292657,1.0078274 C5.65800448,0.384222047 6.29858433,0 6.98805928,0 L17.0978285,0 C17.789358,0 18.4274054,0.383358433 18.7727373,1.00742314 L23.8293561,10.1251794 C24.1754588,10.7506367 24.1754588,11.5216765 23.8290973,12.1476008 L18.7727024,21.2618079 Z" id="Path" fill="#FFFFFF"></path>
                    <path d="M17.3108767,7.67683458 L12.0444427,10.8482861 L6.77904876,7.67746089 C6.85623502,7.57009102 6.95273552,7.47800517 7.06510634,7.40773064 L11.5488154,4.59746687 C11.8563876,4.40511702 12.2355508,4.40511702 12.5433527,4.59761069 L17.0253164,7.40774999 C17.1375151,7.47791692 17.2338565,7.56980407 17.3108767,7.67683458 Z M17.4974028,8.10955201 C17.5121267,8.18398964 17.519587,8.26070997 17.5191852,8.33857703 L17.5191852,13.9571769 C17.5191852,14.3414977 17.3306289,14.6961003 17.0237163,14.8880375 L12.5415765,17.6966084 C12.5036883,17.7203029 12.4647138,17.7410787 12.4249202,17.7589354 L12.4251802,11.1640493 L17.4974028,8.10955201 Z M11.818785,17.8127811 C11.7247231,17.7890568 11.6331177,17.7502966 11.5470926,17.6964981 L7.06530514,14.8881478 C6.75864362,14.6963675 6.56970022,14.3403592 6.56970022,13.9571769 L6.56970022,8.33857703 C6.56970022,8.26081031 6.57741897,8.18426058 6.59227528,8.11002938 L11.8190434,11.2575941 L11.818785,17.8127811 Z" id="Combined-Shape" fill="#232935"></path>
                </g>
                <g id="Container" transform="translate(1.000000, 3.000000)">
                    <path d="M18.7727024,21.2618079 C18.4267222,21.8870445 17.7872548,22.2701251 17.0978285,22.2661123 L6.98805928,22.2661123 C6.29653567,22.2661123 5.65848523,21.88267 5.31312504,21.2585541 L0.259552222,12.1439888 C-0.086550478,11.5185315 -0.086550478,10.7474917 0.259750689,10.1216761 L5.31292657,1.0078274 C5.65800448,0.384222047 6.29858433,0 6.98805928,0 L17.0978285,0 C17.789358,0 18.4274054,0.383358433 18.7727373,1.00742314 L23.8293561,10.1251794 C24.1754588,10.7506367 24.1754588,11.5216765 23.8290973,12.1476008 L18.7727024,21.2618079 Z" id="Path" fill="#FFFFFF"></path>
                    <path d="M17.1227979,7.71047583 C17.0755406,7.6552909 17.0196304,7.60759602 16.9564983,7.56984401 L12.3334697,4.7982377 C12.1275485,4.67509981 11.8756327,4.67507459 11.6702027,4.79791842 L7.0450775,7.5698249 C6.98176069,7.60768737 6.92566708,7.65558044 6.87823417,7.71107584 L11.999995,10.6602891 L17.1227979,7.71047583 Z M17.2935577,8.14971882 L12.333467,11.0058391 L12.3331342,17.1108955 L16.9548478,14.3417329 C17.1638063,14.216779 17.2941338,13.9826361 17.2941338,13.7265502 L17.2941338,8.18308914 C17.2941931,8.17192497 17.2939991,8.16079932 17.2935561,8.14971975 Z M11.7672233,17.1602096 L11.7675556,11.0640157 L6.70669963,8.14987271 C6.7061572,8.16152835 6.7058827,8.17323783 6.7058827,8.18499362 L6.7058827,13.7265502 C6.7058827,13.981798 6.83682217,14.2171856 7.04554547,14.3419991 L11.6681293,17.1116835 C11.700162,17.1308386 11.7333095,17.1470137 11.7672233,17.1602096 Z M17.3191163,6.9642217 C17.7437491,7.21814518 18.0026936,7.68493588 18.0000317,8.18499362 L18.0000317,13.7265502 C18.0000317,14.2288184 17.741099,14.6940295 17.3173861,14.947403 L12.6939133,17.7176196 C12.2650793,17.9740559 11.7348012,17.9740151 11.3055908,17.7173535 L6.68300706,14.9476691 C6.2594878,14.694411 6,14.2279345 6,13.7265502 L6,8.18499362 C6,7.68271918 6.25885432,7.21751161 6.68250549,6.964175 L11.3076306,4.19226858 C11.736475,3.93582614 12.2667531,3.93587923 12.696088,4.19261554 L17.3191163,6.9642217 Z M14.0150942,15.5678039 C14.0150879,15.6965139 13.8484202,15.8008467 13.6428316,15.8008467 C13.4372429,15.8008467 13.2705855,15.6964995 13.2705918,15.5677896 L13.2709404,11.2918443 C13.2709467,11.1631343 13.4376143,11.0588014 13.643203,11.0588014 C13.8487916,11.0588014 14.015449,11.1631486 14.0154427,11.2918586 L14.0150942,15.5678039 Z M15.4268596,14.7913329 C15.4268533,14.9200429 15.2601856,15.0243758 15.054597,15.0243758 C14.8490083,15.0243758 14.6823509,14.9200286 14.6823573,14.7913186 L14.6827058,10.5153733 C14.6827121,10.3866633 14.8493797,10.2823305 15.0549684,10.2823305 C15.260557,10.2823305 15.4272144,10.3866777 15.4272081,10.5153876 L15.4268596,14.7913329 Z M16.7680367,13.9442737 C16.7680304,14.0729836 16.6013628,14.1773165 16.3957741,14.1773165 C16.1901855,14.1773165 16.0235281,14.0729693 16.0235344,13.9442594 L16.0238829,9.66831404 C16.0238892,9.53960408 16.1905569,9.43527121 16.3961455,9.43527121 C16.6017342,9.43527121 16.7683916,9.53961841 16.7683853,9.66832836 L16.7680367,13.9442737 Z" id="Combined-Shape" fill="#232935"></path>
                </g>
                <path d="M29.0429727,31.8023484 C28.6969925,32.4275851 28.0575251,32.8106656 27.3680988,32.8066528 L17.2583295,32.8066528 C16.5668059,32.8066528 15.9287555,32.4232105 15.5833953,31.7990947 L10.5298225,22.6845293 C10.1837198,22.059072 10.1837198,21.2880323 10.530021,20.6622167 L15.5831968,11.5483679 C15.9282748,10.9247626 16.5688546,10.5405405 17.2583295,10.5405405 L27.3680988,10.5405405 C28.0596282,10.5405405 28.6976757,10.923899 29.0430075,11.5479637 L34.0996264,20.66572 C34.4457291,21.2911773 34.4457291,22.062217 34.0993676,22.6881414 L29.0429727,31.8023484 Z" id="Path" fill-opacity="0.47744" fill="#1E222B"></path>
                <path d="M29.6272528,32.0549472 C29.2812725,32.6801838 28.6418051,33.0632644 27.9523789,33.0592516 L17.8426096,33.0592516 C17.151086,33.0592516 16.5130356,32.6758092 16.1676754,32.0516934 L11.1141026,22.9371281 C10.7679999,22.3116708 10.7679999,21.540631 11.114301,20.9148154 L16.1674769,11.8009667 C16.5125548,11.1773613 17.1531347,10.7931393 17.8426096,10.7931393 L27.9523789,10.7931393 C28.6439083,10.7931393 29.2819558,11.1764977 29.6272876,11.8005624 L34.6839065,20.9183187 C35.0300092,21.543776 35.0300092,22.3148158 34.6836477,22.9407401 L29.6272528,32.0549472 Z" id="Path" fill="#00D1CA"></path>
                <path d="M19.687796,17.448771 C22.1418913,15.6156824 25.5881381,16.1553656 27.4658737,18.6253696 C27.8274273,19.1009631 27.7487973,19.8104416 27.2415328,20.1282704 C26.7342683,20.4460992 26.0822498,20.3510055 25.7282757,19.8853823 C24.8243158,18.6962985 23.2860807,18.2097656 21.8849642,18.6773583 C20.4847813,19.1446394 19.558688,20.4597491 19.5894744,21.9382878 C19.6202932,23.4183806 20.5379051,24.7264684 21.9598716,25.1800506 C23.380357,25.6331603 24.8848984,25.1467405 25.7400003,23.9485794 C26.1214026,23.4141618 26.684333,23.3132025 27.2198305,23.6215906 C27.755328,23.9299786 27.8020358,24.7106279 27.470964,25.1940193 C26.4459016,26.6303949 24.8523975,27.4840564 23.0702652,27.4927235 C21.2891461,27.5012511 19.6195317,26.6865046 18.5372225,25.2621643 C16.6595007,22.7921612 17.2337058,19.2818558 19.687796,17.448771 Z M26.8916985,20.9847565 C27.2205798,20.8236562 27.6110561,20.8546058 27.9161014,21.0652403 C28.2206436,21.2755274 28.3943792,21.6333551 28.3717887,22.0045563 C28.3491222,22.3770055 28.1322152,22.7062589 27.802772,22.8676344 C27.4738907,23.0287347 27.0834144,22.997785 26.7783691,22.7871505 C26.4738269,22.5768633 26.3000913,22.2190358 26.3226818,21.8478345 C26.3453483,21.4753853 26.5622554,21.146132 26.8916985,20.9847565 Z" id="Combined-Shape" fill="#232935" transform="translate(22.899001, 21.926229) rotate(-360.000000) translate(-22.899001, -21.926229) "></path>
            </g>
        </g>
    </g>
</svg>