<?xml version="1.0" encoding="UTF-8"?>
<svg width="36px" height="36px" viewBox="0 0 36 36" version="1.1" xmlns="http://www.w3.org/2000/svg" xmlns:xlink="http://www.w3.org/1999/xlink">
    <!-- Generator: Sketch 56.3 (81716) - https://sketch.com -->
    <title>Deployment</title>
    <desc>Created with Sketch.</desc>
    <g id="Icons-&amp;-Buttons" stroke="none" stroke-width="1" fill="none" fill-rule="evenodd">
        <g id="Artboard" transform="translate(-35.000000, -422.000000)" fill-rule="nonzero">
            <g id="Deployment" transform="translate(35.000000, 422.000000)">
                <path d="M28.0551318,32.5566524 C27.5380767,33.4552184 26.5824156,34.0057671 25.5520927,34 L10.4434045,34 C9.40994717,34 8.45640363,33.4489315 7.94027518,32.5519762 L0.387891505,19.4528735 C-0.129346591,18.5539903 -0.129346591,17.4458817 0.388188107,16.5464836 L7.93997858,3.44841078 C8.45568517,2.55218915 9.41300882,2 10.4434045,2 L25.5520927,2 C26.5855587,2 27.5390978,2.55094799 28.0551839,3.44782978 L35.6121198,16.5515184 C36.1293579,17.4504016 36.1293579,18.5585102 35.611733,19.4580646 L28.0551318,32.5566524 Z" id="Path" fill="#FFFFFF"></path>
                <path d="M25.6955859,13.504161 L17.9999887,17.9354411 L10.3059114,13.5050361 C10.4187001,13.3550146 10.5597118,13.2263485 10.7239141,13.1281581 L17.2757514,9.20154412 C17.7251925,8.93278514 18.2792462,8.93278514 18.7290229,9.20174507 L25.2783098,13.1281852 C25.4422606,13.2262252 25.5830398,13.3546137 25.6955859,13.504161 Z M25.9681479,14.1087713 C25.9896633,14.2127785 26.0005646,14.3199753 25.9999775,14.4287743 L25.9999775,22.279309 C25.9999775,22.8162975 25.7244488,23.3117625 25.2759717,23.5799449 L18.7264274,27.5041936 C18.6078538,27.5750988 18.4819989,27.6272974 18.3526999,27.6607867 L18.3529911,18.4937323 L25.9681479,14.1087713 Z M17.6702389,27.6665131 C17.5327928,27.6333645 17.3989365,27.5792077 17.273234,27.5040395 L10.7242046,23.580099 C10.2760943,23.3121358 10,22.8147066 10,22.279309 L10,14.4287743 C10,14.3201155 10.0112791,14.2131571 10.0329879,14.1094383 L17.6705299,18.5072891 L17.6702389,27.6665131 Z" id="Combined-Shape" fill="#232935"></path>
            </g>
        </g>
    </g>
</svg>