<?xml version="1.0" encoding="UTF-8"?>
<svg width="36px" height="36px" viewBox="0 0 36 36" version="1.1" xmlns="http://www.w3.org/2000/svg" xmlns:xlink="http://www.w3.org/1999/xlink">
    <!-- Generator: Sketch 56.3 (81716) - https://sketch.com -->
    <title>Function Swap</title>
    <desc>Created with Sketch.</desc>
    <g id="Icons-&amp;-Buttons" stroke="none" stroke-width="1" fill="none" fill-rule="evenodd">
        <g id="Artboard" transform="translate(-152.000000, -461.000000)" fill-rule="nonzero">
            <g id="Swap" transform="translate(152.000000, 461.000000)">
                <g id="Deployment" transform="translate(1.000000, 3.000000)">
                    <path d="M18.7727024,21.2618079 C18.4267222,21.8870445 17.7872548,22.2701251 17.0978285,22.2661123 L6.98805928,22.2661123 C6.29653567,22.2661123 5.65848523,21.88267 5.31312504,21.2585541 L0.259552222,12.1439888 C-0.086550478,11.5185315 -0.086550478,10.7474917 0.259750689,10.1216761 L5.31292657,1.0078274 C5.65800448,0.384222047 6.29858433,0 6.98805928,0 L17.0978285,0 C17.789358,0 18.4274054,0.383358433 18.7727373,1.00742314 L23.8293561,10.1251794 C24.1754588,10.7506367 24.1754588,11.5216765 23.8290973,12.1476008 L18.7727024,21.2618079 Z" id="Path" fill="#FFFFFF"></path>
                    <path d="M8.56704067,14.4335069 L9.55200636,9.28260305 L8.19247625,9.28260305 L8.19247625,7.64367911 L9.87107975,7.64367911 L10.1346621,6.29742016 C10.4398628,4.67312947 11.619047,4 12.7288675,4 C13.3670143,4 13.5751057,4.058533 13.9635428,4.19023224 L13.9635428,5.87305593 C13.7138332,5.81452293 13.4363781,5.77062318 13.1034319,5.77062318 C12.7288675,5.77062318 12.1184663,5.90232243 11.9381204,6.86811689 L11.7855201,7.64367911 L13.4086326,7.64367911 L13.4086326,9.28260305 L11.4664467,9.28260305 L10.370499,15.0188368 C10.0652983,16.6284943 8.88611406,17.316257 7.77629357,17.316257 C7.12427403,17.316257 6.87456442,17.2430908 6.5,17.1113915 L6.5,15.4432011 C6.74970961,15.5017341 7.05491025,15.5456338 7.40172915,15.5456338 C7.77629357,15.5456338 8.38669484,15.3993013 8.56704067,14.4335069 Z" id="Shape" fill="#232935"></path>
                </g>
                <path d="M29.0429727,31.8023484 C28.6969925,32.4275851 28.0575251,32.8106656 27.3680988,32.8066528 L17.2583295,32.8066528 C16.5668059,32.8066528 15.9287555,32.4232105 15.5833953,31.7990947 L10.5298225,22.6845293 C10.1837198,22.059072 10.1837198,21.2880323 10.530021,20.6622167 L15.5831968,11.5483679 C15.9282748,10.9247626 16.5688546,10.5405405 17.2583295,10.5405405 L27.3680988,10.5405405 C28.0596282,10.5405405 28.6976757,10.923899 29.0430075,11.5479637 L34.0996264,20.66572 C34.4457291,21.2911773 34.4457291,22.062217 34.0993676,22.6881414 L29.0429727,31.8023484 Z" id="Path" fill-opacity="0.47744" fill="#1E222B"></path>
                <path d="M29.6272528,32.0549472 C29.2812725,32.6801838 28.6418051,33.0632644 27.9523789,33.0592516 L17.8426096,33.0592516 C17.151086,33.0592516 16.5130356,32.6758092 16.1676754,32.0516934 L11.1141026,22.9371281 C10.7679999,22.3116708 10.7679999,21.540631 11.114301,20.9148154 L16.1674769,11.8009667 C16.5125548,11.1773613 17.1531347,10.7931393 17.8426096,10.7931393 L27.9523789,10.7931393 C28.6439083,10.7931393 29.2819558,11.1764977 29.6272876,11.8005624 L34.6839065,20.9183187 C35.0300092,21.543776 35.0300092,22.3148158 34.6836477,22.9407401 L29.6272528,32.0549472 Z" id="Path" fill="#00D1CA"></path>
                <path d="M19.687796,17.448771 C22.1418913,15.6156824 25.5881381,16.1553656 27.4658737,18.6253696 C27.8274273,19.1009631 27.7487973,19.8104416 27.2415328,20.1282704 C26.7342683,20.4460992 26.0822498,20.3510055 25.7282757,19.8853823 C24.8243158,18.6962985 23.2860807,18.2097656 21.8849642,18.6773583 C20.4847813,19.1446394 19.558688,20.4597491 19.5894744,21.9382878 C19.6202932,23.4183806 20.5379051,24.7264684 21.9598716,25.1800506 C23.380357,25.6331603 24.8848984,25.1467405 25.7400003,23.9485794 C26.1214026,23.4141618 26.684333,23.3132025 27.2198305,23.6215906 C27.755328,23.9299786 27.8020358,24.7106279 27.470964,25.1940193 C26.4459016,26.6303949 24.8523975,27.4840564 23.0702652,27.4927235 C21.2891461,27.5012511 19.6195317,26.6865046 18.5372225,25.2621643 C16.6595007,22.7921612 17.2337058,19.2818558 19.687796,17.448771 Z M26.8916985,20.9847565 C27.2205798,20.8236562 27.6110561,20.8546058 27.9161014,21.0652403 C28.2206436,21.2755274 28.3943792,21.6333551 28.3717887,22.0045563 C28.3491222,22.3770055 28.1322152,22.7062589 27.802772,22.8676344 C27.4738907,23.0287347 27.0834144,22.997785 26.7783691,22.7871505 C26.4738269,22.5768633 26.3000913,22.2190358 26.3226818,21.8478345 C26.3453483,21.4753853 26.5622554,21.146132 26.8916985,20.9847565 Z" id="Combined-Shape" fill="#232935" transform="translate(22.899001, 21.926229) rotate(-360.000000) translate(-22.899001, -21.926229) "></path>
            </g>
        </g>
    </g>
</svg>