<?xml version="1.0" encoding="UTF-8"?>
<svg width="36px" height="36px" viewBox="0 0 36 36" version="1.1" xmlns="http://www.w3.org/2000/svg" xmlns:xlink="http://www.w3.org/1999/xlink">
    <!-- Generator: Sketch 56.3 (81716) - https://sketch.com -->
    <title>Function</title>
    <desc>Created with Sketch.</desc>
    <g id="Icons-&amp;-Buttons" stroke="none" stroke-width="1" fill="none" fill-rule="evenodd">
        <g id="Artboard" transform="translate(-152.000000, -422.000000)" fill-rule="nonzero">
            <g id="Function-OpenFaas" transform="translate(152.000000, 422.000000)">
                <path d="M28.0551318,32.5566524 C27.5380767,33.4552184 26.5824156,34.0057671 25.5520927,34 L10.4434045,34 C9.40994717,34 8.45640363,33.4489315 7.94027518,32.5519762 L0.387891505,19.4528735 C-0.129346591,18.5539903 -0.129346591,17.4458817 0.388188107,16.5464836 L7.93997858,3.44841078 C8.45568517,2.55218915 9.41300882,2 10.4434045,2 L25.5520927,2 C26.5855587,2 27.5390978,2.55094799 28.0551839,3.44782978 L35.6121198,16.5515184 C36.1293579,17.4504016 36.1293579,18.5585102 35.611733,19.4580646 L28.0551318,32.5566524 Z" id="Path" fill="#FFFFFF"></path>
                <path d="M12.1619531,20.912583 L13.1921456,15.5251648 L11.7701898,15.5251648 L11.7701898,13.8109862 L13.5258699,13.8109862 L13.8015552,12.402911 C14.1207697,10.7040376 15.3540987,10 16.5148789,10 C17.1823276,10 17.3999738,10.0612207 17.8062469,10.1989672 L17.8062469,11.9590612 C17.5450714,11.8978405 17.2548763,11.851925 16.9066423,11.851925 C16.5148789,11.851925 15.8764498,11.9896715 15.687823,12.9998124 L15.5282158,13.8109862 L17.2258568,13.8109862 L17.2258568,15.5251648 L15.1944914,15.5251648 L14.048221,21.5247896 C13.7290064,23.2083579 12.4956775,23.9277006 11.3348972,23.9277006 C10.6529389,23.9277006 10.3917633,23.8511748 10,23.7134283 L10,21.9686394 C10.2611755,22.0298601 10.5803901,22.0757756 10.9431339,22.0757756 C11.3348972,22.0757756 11.9733264,21.922724 12.1619531,20.912583 Z M17.8022897,18.2034157 C17.8022897,15.7838934 18.6199532,13.9336735 20.1457833,12.351711 L20.3087828,12.1827151 L21.487831,13.3294875 L21.3220736,13.51577 C20.0984415,14.8909197 19.4940087,16.354963 19.4940087,18.2034157 C19.4940087,20.0545169 20.1011305,21.5303444 21.3220736,22.902472 L21.4890063,23.0900753 L20.3083664,24.2222222 L20.1465324,24.0558936 C18.625498,22.4926162 17.8022897,20.6269837 17.8022897,18.2034157 Z M26,18.2034157 C26,20.6269837 25.1767917,22.4926162 23.6557573,24.0558936 L23.4939233,24.2222222 L22.3132834,23.0900753 L22.4802162,22.902472 C23.7011592,21.5303444 24.308281,20.0545169 24.308281,18.2034157 C24.308281,16.354963 23.7038482,14.8909197 22.4802162,13.51577 L22.3144587,13.3294875 L23.493507,12.1827151 L23.6565064,12.351711 C25.1823365,13.9336735 26,15.7838934 26,18.2034157 Z" id="Shape" fill="#232935"></path>
            </g>
        </g>
    </g>
</svg>