<?xml version="1.0" encoding="UTF-8"?>
<svg width="36px" height="36px" viewBox="0 0 36 36" version="1.1" xmlns="http://www.w3.org/2000/svg" xmlns:xlink="http://www.w3.org/1999/xlink">
    <!-- Generator: Sketch 56.3 (81716) - https://sketch.com -->
    <title>StatefulSet</title>
    <desc>Created with Sketch.</desc>
    <g id="Icons-&amp;-Buttons" stroke="none" stroke-width="1" fill="none" fill-rule="evenodd">
        <g id="Artboard" transform="translate(-113.000000, -422.000000)">
            <g id="Stateful-Set" transform="translate(113.000000, 422.000000)">
                <path d="M28.0551318,32.5566524 C27.5380767,33.4552184 26.5824156,34.0057671 25.5520927,34 L10.4434045,34 C9.40994717,34 8.45640363,33.4489315 7.94027518,32.5519762 L0.387891505,19.4528735 C-0.129346591,18.5539903 -0.129346591,17.4458817 0.388188107,16.5464836 L7.93997858,3.44841078 C8.45568517,2.55218915 9.41300882,2 10.4434045,2 L25.5520927,2 C26.5855587,2 27.5390978,2.55094799 28.0551839,3.44782978 L35.6121198,16.5515184 C36.1293579,17.4504016 36.1293579,18.5585102 35.611733,19.4580646 L28.0551318,32.5566524 Z" id="Path" fill="#FFFFFF" fill-rule="nonzero"></path>
                <path d="M10.2857143,14.2940628 C10.2857143,15.0555807 13.739549,16.5286773 18,16.5286773 C22.2605402,16.5286773 25.7142857,15.26331 25.7142857,14.2940628 C25.7142857,13.6478981 25.7142857,14.911461 25.7142857,18.0847517 C25.7142857,19.6291246 22.2604956,20.8811288 17.9999554,20.8811288 C13.7395044,20.8811288 10.2857143,19.6291246 10.2857143,18.0847517 C10.2857143,15.0499472 10.2857143,13.7863843 10.2857143,14.2940628 Z M10.2857143,19.412934 C10.2857143,20.1744519 13.739549,21.6475485 18,21.6475485 C22.2605402,21.6475485 25.7142857,20.3821812 25.7142857,19.412934 C25.7142857,18.7667693 25.7142857,20.0303322 25.7142857,23.2036229 C25.7142857,24.7479957 22.2604956,26 17.9999554,26 C13.7395044,26 10.2857143,24.7479957 10.2857143,23.2036229 C10.2857143,20.1688184 10.2857143,18.9052555 10.2857143,19.412934 Z M17.9999554,15.8032687 C13.7395044,15.8032687 10.2857143,14.5041404 10.2857143,12.901639 C10.2857143,11.2990442 13.7395044,10 17.9999554,10 C22.2604956,10 25.7142857,11.2990442 25.7142857,12.901639 C25.7142857,14.5041404 22.2604956,15.8032687 17.9999554,15.8032687 Z" id="Combined-Shape" fill="#232935"></path>
            </g>
        </g>
    </g>
</svg>