<?xml version="1.0" encoding="UTF-8"?>
<svg width="36px" height="36px" viewBox="0 0 36 36" version="1.1" xmlns="http://www.w3.org/2000/svg" xmlns:xlink="http://www.w3.org/1999/xlink">
    <!-- Generator: Sketch 56.3 (81716) - https://sketch.com -->
    <title>Volume</title>
    <desc>Created with Sketch.</desc>
    <g id="Icons-&amp;-Buttons" stroke="none" stroke-width="1" fill="none" fill-rule="evenodd">
        <g id="Artboard" transform="translate(-74.000000, -422.000000)">
            <g id="Volume" transform="translate(74.000000, 422.000000)">
                <path d="M28.0551318,32.5566524 C27.5380767,33.4552184 26.5824156,34.0057671 25.5520927,34 L10.4434045,34 C9.40994717,34 8.45640363,33.4489315 7.94027518,32.5519762 L0.387891505,19.4528735 C-0.129346591,18.5539903 -0.129346591,17.4458817 0.388188107,16.5464836 L7.93997858,3.44841078 C8.45568517,2.55218915 9.41300882,2 10.4434045,2 L25.5520927,2 C26.5855587,2 27.5390978,2.55094799 28.0551839,3.44782978 L35.6121198,16.5515184 C36.1293579,17.4504016 36.1293579,18.5585102 35.611733,19.4580646 L28.0551318,32.5566524 Z" id="Path" fill="#FFFFFF" fill-rule="nonzero"></path>
                <path d="M10,15.4485075 C10,16.308982 13.5817545,18.3773989 18,18.3773989 C22.418338,18.3773989 26,16.543705 26,15.4485075 C26,14.7183759 26,16.9658074 26,22.1908021 C26,23.9358609 22.418338,26 18,26 C13.5817545,26 10,23.9358609 10,22.1908021 C10,17.1222894 10,14.8748579 10,15.4485075 Z M18,17.5538617 C13.5817545,17.5538617 10,15.6858839 10,13.875143 C10,12.0642965 13.5817545,10 18,10 C22.418338,10 26,12.0642965 26,13.875143 C26,15.6858839 22.418338,17.5538617 18,17.5538617 Z" id="Combined-Shape" fill="#232935"></path>
            </g>
        </g>
    </g>
</svg>